:SAMPLES-PER-SECOND 30
:FULLY-SPECIFIED
:DEGREES
559
root  -48.0089 32.5227 36.5419 -0.188354 71.4087 -17.4931
RightUpLeg  -13.7315 -7.63406 -2.41383
RightLeg  47.0607 -3.13222 -2.99261
RightFoot  15.9631 0.214437 -1.15168
RightToes  -51.7169 -0.318176 -0.371313
Spine  7.1241 -1.22377 1.8339
Spine1  14.1072 -1.95867 2.13813
HEad  31.1028 11.6394 -2.66534
LeftShoulder1  0 -2.42657e-020 -4.95415e-022
LeftArm  -24.9482 18.4089 -80.4527
LeftForeArm  -138.998 -23.5552 -3.99318
LeftHand  9.14519 -25.5136 -39.2908
RightShoulder  0 2.42657e-020 1.07489e-018
RightArm  -68.9887 -12.2167 72.1853
RightForeArm  5.94845 69.2747 27.8718
RightHand  3.22136 23.2981 15.9078
LeftUpLeg  -34.9869 0.703258 -10.738
LeftLeg  29.2721 5.14585 2.45599
LeftFoot  -8.45296 -0.0649245 -0.878535
LeftToes  21.9959 1.18758e-006 1.19596e-007
560
root  -45.3643 32.2211 37.3074 -0.219116 71.2737 -14.5273
RightUpLeg  -16.2688 -4.60701 -3.83945
RightLeg  59.3507 0.157679 0.146462
RightFoot  15.5965 0.0357464 0.116531
RightToes  -40.4124 -0.221786 -0.31744
Spine  6.71294 -2.57895 1.07999
Spine1  13.2963 -4.59372 0.467376
HEad  34.6064 15.2329 -2.30134
LeftShoulder1  0 -2.42657e-020 -4.95415e-022
LeftArm  -22.9193 24.3563 -78.2885
LeftForeArm  -141.022 -27.0512 -4.73525
LeftHand  9.55561 -25.8446 -40.4114
RightShoulder  0 2.42657e-020 1.07489e-018
RightArm  -70.549 -8.42277 70.5195
RightForeArm  20.4257 73.5024 36.7761
RightHand  2.9771 23.1245 14.8517
LeftUpLeg  -29.7091 1.67432 -11.6775
LeftLeg  33.5706 4.67408 2.67733
LeftFoot  -14.1112 -0.170143 -1.37462
LeftToes  22.7171 1.18758e-006 1.19596e-007
561
root  -42.7335 32.3052 37.9785 -0.781494 70.3976 -13.7565
RightUpLeg  -19.6594 -1.89993 -3.90776
RightLeg  64.1107 2.16895 3.70238
RightFoot  10.8658 -0.0468976 0.87059
RightToes  -42.4846 -0.238629 -0.328723
Spine  6.00017 -3.62349 0.813662
Spine1  11.8948 -6.66329 -0.194764
HEad  38.0628 18.7427 -2.87655
LeftShoulder1  0 -2.42657e-020 -4.95415e-022
LeftArm  -24.4444 29.635 -78.6101
LeftForeArm  -139.844 -30.0656 -5.41671
LeftHand  9.68751 -25.6206 -41.2584
RightShoulder  0 2.42657e-020 1.07489e-018
RightArm  -70.56 -2.04371 69.3878
RightForeArm  33.1524 75.235 42.3668
RightHand  2.83521 23.7319 13.8082
LeftUpLeg  -22.518 3.34554 -11.7915
LeftLeg  31.09 4.19067 2.16616
LeftFoot  -16.6112 -0.208767 -1.43001
LeftToes  22.0319 1.18758e-006 1.19596e-007
562
root  -40.2577 32.7526 38.5466 -0.765381 67.6532 -13.0956
RightUpLeg  -23.5115 1.42094 -3.54866
RightLeg  61.5668 1.65829 2.54285
RightFoot  7.22455 -0.00445905 0.448139
RightToes  -44.0118 -0.251298 -0.336645
Spine  5.41547 -3.7528 0.706664
Spine1  10.6862 -6.8296 -0.610194
HEad  40.7179 22.107 -3.2269
LeftShoulder1  0 -2.42657e-020 -4.95415e-022
LeftArm  -26.9874 33.1297 -80.1077
LeftForeArm  -138.856 -32.1536 -5.91374
LeftHand  9.58703 -25.1204 -41.6314
RightShoulder  0 2.42657e-020 1.07489e-018
RightArm  -65.6664 2.5784 68.7679
RightForeArm  50.9085 77.0076 50.4441
RightHand  1.93941 24.9655 9.11667
LeftUpLeg  -16.6559 5.08531 -11.3897
LeftLeg  28.9075 4.42507 2.07817
LeftFoot  -13.81 -0.151332 -1.24959
LeftToes  13.6725 1.18758e-006 1.19596e-007
563
root  -37.8353 33.4304 39.058 -2.04736 65.2525 -13.1091
RightUpLeg  -24.7235 3.01516 -2.84103
RightLeg  52.0122 -0.312692 -0.404126
RightFoot  2.30526 0.00692367 0.0334191
RightToes  -41.6493 -0.231791 -0.324248
Spine  5.68264 -3.15057 0.779901
Spine1  11.1254 -5.41512 -0.957097
HEad  41.6524 23.4996 -4.3511
LeftShoulder1  0 -2.42657e-020 -4.95415e-022
LeftArm  -27.0561 32.79 -81.0459
LeftForeArm  -140.687 -32.8676 -6.08618
LeftHand  9.88833 -25.4386 -42.3193
RightShoulder  0 2.42657e-020 1.07489e-018
RightArm  -60.0998 5.03763 68.2393
RightForeArm  71.5786 78.5705 61.7517
RightHand  1.20945 25.6991 5.66994
LeftUpLeg  -12.9382 8.65054 -10.5113
LeftLeg  30.6529 2.57639 1.30663
LeftFoot  -6.24397 -0.0192319 -0.352609
LeftToes  3.75344 1.18758e-006 1.19596e-007
564
root  -35.5997 34.0876 39.5628 -4.01794 63.8407 -14.152
RightUpLeg  -24.4865 3.71229 -1.42728
RightLeg  38.2784 -3.50953 -2.4366
RightFoot  -0.961958 -0.00250205 0.0795627
RightToes  -39.545 -0.214859 -0.312538
Spine  6.2871 -2.4307 0.95804
Spine1  12.2292 -3.77598 -1.1273
HEad  41.0395 24.0752 -5.37409
LeftShoulder1  0 -2.42657e-020 -4.95415e-022
LeftArm  -27.7434 30.4604 -81.8952
LeftForeArm  -140.9 -33.3149 -6.19686
LeftHand  10.1101 -25.6362 -42.8696
RightShoulder  0 2.42657e-020 1.07489e-018
RightArm  -52.6991 6.15008 68.8158
RightForeArm  83.0488 78.9747 66.0937
RightHand  0.287087 26.1857 1.60472
LeftUpLeg  -13.4008 14.1151 -8.05632
LeftLeg  38.5387 -3.06928 -2.14079
LeftFoot  4.75252 0.00915178 -0.220548
LeftToes  -9.85952 1.18758e-006 1.19596e-007
565
root  -33.445 34.4175 40.0016 -3.82605 63.7457 -13.7468
RightUpLeg  -24.658 4.29427 -1.41505
RightLeg  24.7562 -3.81012 -1.47042
RightFoot  -2.5237 -0.0051451 0.144008
RightToes  -41.2896 -0.228866 -0.322291
Spine  6.74275 -2.03657 0.932965
Spine1  13.066 -2.9122 -1.41612
HEad  39.5658 23.8913 -6.07914
LeftShoulder1  0 -2.42657e-020 -4.95415e-022
LeftArm  -28.349 28.3048 -82.5378
LeftForeArm  -142.014 -34.1592 -6.40812
LeftHand  10.2708 -25.9674 -42.969
RightShoulder  0 2.42657e-020 1.07489e-018
RightArm  -44.3814 7.05388 70.1454
RightForeArm  89.1705 78.8305 64.3682
RightHand  -0.819149 26.1443 -3.15752
LeftUpLeg  -17.4263 16.0068 -5.81384
LeftLeg  50.4292 -8.31258 -8.74384
LeftFoot  14.501 0.358243 -2.81528
LeftToes  -14.4414 1.18758e-006 1.19596e-007
